<?xml version="1.0" encoding="UTF-8" ?>
<!DOCTYPE svg PUBLIC "-//W3C//DTD SVG 1.1//EN" "http://www.w3.org/Graphics/SVG/1.1/DTD/svg11.dtd">
<svg width="500pt" height="500pt" viewBox="0 0 500 500" version="1.1" xmlns="http://www.w3.org/2000/svg">
<g id="#ffffffff">
<path fill="#ffffff" opacity="1.00" d=" M 231.53 50.85 C 261.93 48.14 293.04 52.06 321.48 63.31 C 353.78 75.62 382.73 96.61 404.64 123.34 C 421.22 143.68 433.76 167.29 441.34 192.42 C 448.54 216.96 451.33 242.89 449.11 268.38 C 445.37 310.43 427.66 351.02 399.63 382.56 C 370.66 415.28 330.74 438.07 287.84 446.41 C 260.49 451.56 232.04 451.18 204.90 444.95 C 154.98 433.42 109.82 402.06 82.17 358.84 C 50.55 310.66 41.54 248.42 58.02 193.21 C 68.39 158.46 88.27 126.51 115.22 102.21 C 147.11 73.19 188.53 54.63 231.53 50.85 M 178.48 122.81 C 170.50 125.56 164.37 133.45 164.29 141.99 C 164.29 187.00 164.27 232.01 164.29 277.02 C 164.18 293.90 168.47 310.76 176.49 325.61 C 193.21 356.90 227.34 378.46 263.02 378.52 C 280.22 377.87 297.43 373.34 312.07 364.14 C 328.48 354.35 341.96 339.70 350.32 322.52 C 366.95 289.48 362.61 247.23 339.93 218.06 C 326.35 199.85 306.17 186.66 284.05 181.47 C 280.72 180.77 277.31 179.40 273.90 180.39 C 268.49 181.53 264.31 186.74 264.31 192.26 C 264.26 203.19 264.28 214.11 264.30 225.04 C 264.19 230.63 268.05 236.14 273.70 237.17 C 288.43 240.47 301.00 252.15 305.21 266.67 C 308.59 278.04 307.27 290.87 301.06 301.05 C 294.07 313.03 280.86 320.85 267.13 321.99 C 257.27 322.20 247.11 319.81 239.12 313.85 C 228.08 305.91 221.25 292.45 221.44 278.83 C 221.41 233.87 221.44 188.90 221.42 143.93 C 221.51 137.10 218.59 130.08 212.98 126.01 C 208.56 122.36 202.61 121.12 196.99 121.49 C 190.82 121.83 184.41 120.57 178.48 122.81 Z" />
</g>
</svg>
